<svg xmlns="http://www.w3.org/2000/svg" width="48" height="48" viewBox="0 0 48 48" role="img" aria-labelledby="t d">
  <title id="t">Reaction Dynamics</title>
  <desc id="d">Single-colour mark for stamps, print, and one-colour contexts.</desc>
  <!-- Inherits its colour from surrounding text, so it works on any background.
       No opacity anywhere: one-colour reproduction (screen print, laser etch,
       fax-grade PDF) cannot render it, and the late tick would silently vanish,
       taking the meaning with it. It is distinguished by height and gap instead. -->
  <g fill="currentColor">
    <path d="M6.5 0h35A6.5 6.5 0 0 1 48 6.5v35a6.5 6.5 0 0 1-6.5 6.5h-35A6.5 6.5 0 0 1 0 41.5v-35A6.5 6.5 0 0 1 6.5 0Zm0 3.2A3.3 3.3 0 0 0 3.2 6.5v35a3.3 3.3 0 0 0 3.3 3.3h35a3.3 3.3 0 0 0 3.3-3.3v-35a3.3 3.3 0 0 0-3.3-3.3Z"/>
    <rect x="11.3" y="24.4" width="3.6" height="10.2" rx="1.8"/>
    <rect x="17.3" y="16.4" width="3.6" height="18.2" rx="1.8"/>
    <rect x="23.3" y="20.9" width="3.6" height="13.7" rx="1.8"/>
    <rect x="33.1" y="27.4" width="3.6" height="7.2" rx="1.8"/>
  </g>
</svg>
